SplineFontDB: 3.0
FontName: Invisibles
FullName: Invisibles
FamilyName: Symbol
Weight: Regular
Copyright: Copyright (c) 2016, Chrys
UComments: "2016-6-7: Created with FontForge (http://fontforge.org)"
Version: 001.000
ItalicAngle: 0
UnderlinePosition: -100
UnderlineWidth: 50
Ascent: 800
Descent: 200
InvalidEm: 0
LayerCount: 2
Layer: 0 0 "Back" 1
Layer: 1 0 "Fore" 0
XUID: [1021 846 -1966254872 865]
StyleMap: 0x0000
FSType: 0
OS2Version: 0
OS2_WeightWidthSlopeOnly: 0
OS2_UseTypoMetrics: 1
CreationTime: 1465314575
ModificationTime: 1465361370
OS2TypoAscent: 0
OS2TypoAOffset: 1
OS2TypoDescent: 0
OS2TypoDOffset: 1
OS2TypoLinegap: 90
OS2WinAscent: 0
OS2WinAOffset: 1
OS2WinDescent: 0
OS2WinDOffset: 1
HheadAscent: 0
HheadAOffset: 1
HheadDescent: 0
HheadDOffset: 1
OS2Vendor: 'PfEd'
MarkAttachClasses: 1
DEI: 91125
LangName: 1033
Encoding: UnicodeBmp
UnicodeInterp: none
NameList: AGL with PUA
DisplaySize: -48
AntiAlias: 1
FitToEm: 0
WinInfo: 61248 29 12
BeginPrivate: 0
EndPrivate
BeginChars: 65536 23

StartChar: uniF000
Encoding: 61440 61440 0
Width: 1172
VWidth: 1792
Flags: W
HStem: 345 128<34.6413 738>
VStem: 1014.5 128<76.6413 719.359>
LayerCount: 2
Fore
SplineSet
1142.5 708 m 4
 1142.5 88 l 4
 1142.5 83.400390625 1141 79.5 1138 76.5 c 4
 1135 73.5 1131.16699219 72 1126.5 72 c 6
 1030.5 72 l 6
 1025.83300781 72 1022 73.5 1019 76.5 c 4
 1016 79.5 1014.5 83.400390625 1014.5 88 c 4
 1014.5 708 l 4
 1014.5 712.599609375 1016 716.5 1019 719.5 c 4
 1022 722.5 1025.83300781 724 1030.5 724 c 6
 1126.5 724 l 6
 1131.16699219 724 1135 722.5 1138 719.5 c 4
 1141 716.5 1142.5 712.599609375 1142.5 708 c 4
962 410.5 m 4
 962 405.833007812 960.333007812 401.833007812 957 398.5 c 6
 765 221.5 l 6
 759.666992188 216.833007812 753.833007812 215.833007812 747.5 218.5 c 4
 741.166992188 221.5 738 226.333007812 738 233 c 6
 738 345 l 5
 46 345 l 2
 41.4015227634 345 37.5 346.5 34.5 349.5 c 0
 31.5 352.5 30 356.333007812 30 361 c 2
 30 457 l 2
 30 461.666992188 31.5 465.5 34.5 468.5 c 0
 37.5 471.5 41.4015227634 473 46 473 c 2
 738 473 l 5
 738 585 l 6
 738 592 741.166992188 596.833007812 747.5 599.5 c 4
 753.833007812 602.166992188 759.666992188 601.333007812 765 597 c 6
 957 422 l 6
 960.333007812 418.666992188 962 414.833007812 962 410.5 c 4
EndSplineSet
EndChar

StartChar: uniF001
Encoding: 61441 61441 1
Width: 764
VWidth: 1792
Flags: W
HStem: 263 128<286 606>
VStem: 606 128<391 576>
LayerCount: 2
Fore
SplineSet
734 631 m 2
 734 279 l 2
 734 274.666992188 732.416992188 270.916992188 729.25 267.75 c 0
 726.083007812 264.583007812 722.166992188 263 717.5 263 c 2
 286 263 l 1
 286 167 l 2
 286 153.666992188 279.833007812 144 267.5 138 c 0
 262.56640625 135.599609375 257.766601562 134.400390625 253.100585938 134.400390625 c 0
 246.100585938 134.400390625 239.400390625 137.099609375 233 142.5 c 2
 41 302.5 l 2
 33.6669921875 308.5 30 316.666992188 30 327 c 0
 30 337.333007812 33.6669921875 345.5 41 351.5 c 2
 233 511.5 l 2
 239.248046875 516.740234375 245.921875 519.360351562 253.0234375 519.360351562 c 0
 257.666992188 519.360351562 262.4921875 518.240234375 267.5 516 c 0
 279.833007812 510 286 500.333007812 286 487 c 2
 286 391 l 1
 606 391 l 1
 606 551 l 2
 606 555.666992188 607.833007812 559.833007812 611.5 563.5 c 2
 707.5 643.5 l 2
 712.166992188 647.833007812 717.833007812 648.5 724.5 645.5 c 0
 730.833007812 642.5 734 637.666992188 734 631 c 2
EndSplineSet
Validated: 1
EndChar

StartChar: uniF002
Encoding: 61442 61442 2
Width: 855
VWidth: 1792
Flags: W
HStem: 263 128<353 389 481 606>
VStem: 606 128<391 516>
LayerCount: 2
Fore
SplineSet
734 631 m 2
 734 279 l 2
 734 274.666992188 732.416992188 270.916992188 729.25 267.75 c 0
 726.083007812 264.583007812 722.166992188 263 717.5 263 c 2
 353 263 l 1
 286 196 l 1
 286 167 l 2
 286 153.666992188 279.833007812 144 267.5 138 c 0
 262.56640625 135.599609375 257.766601562 134.400390625 253.100585938 134.400390625 c 0
 246.100585938 134.400390625 239.400390625 137.099609375 233 142.5 c 2
 232.727539062 142.727539062 l 1
 147 57 l 2
 140.333007812 51 132.666992188 48 124 48 c 0
 115.333007812 48 107.666992188 51 101 57 c 0
 95 63.6669921875 92 71.3330078125 92 80 c 0
 92 88.6669921875 95 96.3330078125 101 103 c 2
 182.545898438 184.545898438 l 1
 41 302.5 l 2
 33.6669921875 308.5 30 316.666992188 30 327 c 0
 30 337.333007812 33.6669921875 345.5 41 351.5 c 2
 233 511.5 l 2
 239.248046875 516.740234375 245.921875 519.360351562 253.0234375 519.360351562 c 0
 257.666992188 519.360351562 262.4921875 518.240234375 267.5 516 c 0
 279.833007812 510 286 500.333007812 286 487 c 2
 286 391 l 1
 389 391 l 1
 770 772 l 2
 776.666992188 778 784.333007812 781 793 781 c 0
 801.666992188 781 809.333007812 778 816 772 c 0
 822 765.333007812 825 757.666992188 825 749 c 0
 825 740.333007812 822 732.666992188 816 726 c 2
 730.780273438 640.780273438 l 2
 732.926757812 638.141601562 734 634.881835938 734 631 c 2
481 391 m 1
 606 391 l 1
 606 516 l 1
 481 391 l 1
EndSplineSet
Validated: 1
EndChar

StartChar: uniF003
Encoding: 61443 61443 3
Width: 444
VWidth: 1792
Flags: W
HStem: 168 384<132.569 311.431>
VStem: 30 384<270.569 449.431>
LayerCount: 2
Fore
SplineSet
414 360 m 0
 414 325.166015625 405.416015625 293.041015625 388.25 263.625 c 0
 371.083984375 234.208984375 347.791015625 210.916015625 318.375 193.75 c 0
 288.958984375 176.583984375 256.833984375 168 222 168 c 0
 187.166015625 168 155.041015625 176.583984375 125.625 193.75 c 0
 96.208984375 210.916015625 72.916015625 234.208984375 55.75 263.625 c 0
 38.583984375 293.041015625 30 325.166015625 30 360 c 4
 30 394.833984375 38.583984375 426.958984375 55.75 456.375 c 0
 72.916015625 485.791015625 96.208984375 509.083984375 125.625 526.25 c 0
 155.041015625 543.416015625 187.166015625 552 222 552 c 0
 256.833984375 552 288.958984375 543.416015625 318.375 526.25 c 0
 347.791015625 509.083984375 371.083984375 485.791015625 388.25 456.375 c 0
 405.416015625 426.958984375 414 394.833984375 414 360 c 0
EndSplineSet
Validated: 1
EndChar

StartChar: uni00A0
Encoding: 160 160 4
Width: 829
VWidth: 1792
Flags: W
HStem: 174 384<132.569 695.78>
VStem: 30 769.75<277.595 454.03>
LayerCount: 2
Fore
SplineSet
608 174 m 1
 222 174 l 1
 187.166015625 174 155.041015625 182.583984375 125.625 199.75 c 0
 96.208984375 216.916015625 72.916015625 240.208984375 55.75 269.625 c 0
 38.583984375 299.041015625 30 331.166015625 30 366 c 0
 30 400.833984375 38.583984375 432.958984375 55.75 462.375 c 0
 72.916015625 491.791015625 96.208984375 515.083984375 125.625 532.25 c 0
 155.041015625 549.416015625 187.166015625 558 222 558 c 1
 222 558 607.75 557.625 607.75 557.625 c 1
 642.583984375 557.625 674.708984375 549.041015625 704.125 531.875 c 0
 733.541015625 514.708984375 756.833984375 491.416015625 774 462 c 0
 791.166015625 432.583984375 799.75 400.458984375 799.75 365.625 c 0
 799.75 330.791015625 791.166015625 298.666015625 774 269.25 c 0
 756.833984375 239.833984375 733.541015625 216.541015625 704.125 199.375 c 0
 674.708984375 182.208984375 643 174 608 174 c 1
EndSplineSet
Validated: 1
EndChar

StartChar: uniF004
Encoding: 61444 61444 5
Width: 829
VWidth: 1792
Flags: HW
HStem: 174 384<132.569 695.78>
VStem: 30 769.75<277.595 454.03>
LayerCount: 2
Fore
SplineSet
177.911465776 178.911465776 m 1
 159.623139555 183.134511454 142.194317629 190.08080588 125.625 199.75 c 0
 96.208984375 216.916015625 72.916015625 240.208984375 55.75 269.625 c 0
 38.583984375 299.041015625 30 331.166015625 30 366 c 0
 30 400.833984375 38.583984375 432.958984375 55.75 462.375 c 0
 72.916015625 491.791015625 96.208984375 515.083984375 125.625 532.25 c 0
 155.041015625 549.416015625 187.166015625 558 222 558 c 2
 556.674651991 557.674651991 l 1
 683 684 l 2
 689.311523438 690.311523438 697.333007812 693 706 693 c 0
 723.836914062 693 738 678.842773438 738 661 c 0
 738 652.333007812 735.307617188 644.307617188 729 638 c 2
 645.132576169 554.132576169 l 1
 665.877831986 550.13867078 685.541973264 542.719314586 704.125 531.875 c 0
 733.541015625 514.708984375 756.833984375 491.416015625 774 462 c 0
 791.166015625 432.583984375 799.75 400.458984375 799.75 365.625 c 0
 799.75 330.791015625 791.166015625 298.666015625 774 269.25 c 0
 756.833984375 239.833984375 733.541015625 216.541015625 704.125 199.375 c 0
 674.708984375 182.208984375 643 174 608 174 c 2
 265 174 l 1
 139.634765625 48.634765625 l 2
 132.967773438 42.634765625 125.301757812 39.634765625 116.634765625 39.634765625 c 0
 98.7919921875 39.634765625 84.634765625 53.7978515625 84.634765625 71.634765625 c 0
 84.634765625 80.3017578125 87.634765625 87.9677734375 93.634765625 94.634765625 c 2
 177.911465776 178.911465776 l 1
EndSplineSet
EndChar

StartChar: uni2000
Encoding: 8192 8192 6
Width: 829
VWidth: 1792
Flags: W
HStem: 174 384<132.569 695.78>
VStem: 30 769.75<277.595 454.03>
LayerCount: 2
Fore
SplineSet
177.911465776 178.911465776 m 1
 159.623139555 183.134511454 142.194317629 190.08080588 125.625 199.75 c 0
 96.208984375 216.916015625 72.916015625 240.208984375 55.75 269.625 c 0
 38.583984375 299.041015625 30 331.166015625 30 366 c 0
 30 400.833984375 38.583984375 432.958984375 55.75 462.375 c 0
 72.916015625 491.791015625 96.208984375 515.083984375 125.625 532.25 c 0
 155.041015625 549.416015625 187.166015625 558 222 558 c 2
 556.674651991 557.674651991 l 1
 683 684 l 2
 689.311523438 690.311523438 697.333007812 693 706 693 c 0
 723.836914062 693 738 678.842773438 738 661 c 0
 738 652.333007812 735.307617188 644.307617188 729 638 c 2
 645.132576169 554.132576169 l 1
 665.877831986 550.13867078 685.541973264 542.719314586 704.125 531.875 c 0
 733.541015625 514.708984375 756.833984375 491.416015625 774 462 c 0
 791.166015625 432.583984375 799.75 400.458984375 799.75 365.625 c 0
 799.75 330.791015625 791.166015625 298.666015625 774 269.25 c 0
 756.833984375 239.833984375 733.541015625 216.541015625 704.125 199.375 c 0
 674.708984375 182.208984375 643 174 608 174 c 2
 265 174 l 1
 139.634765625 48.634765625 l 2
 132.967773438 42.634765625 125.301757812 39.634765625 116.634765625 39.634765625 c 0
 98.7919921875 39.634765625 84.634765625 53.7978515625 84.634765625 71.634765625 c 0
 84.634765625 80.3017578125 87.634765625 87.9677734375 93.634765625 94.634765625 c 2
 177.911465776 178.911465776 l 1
EndSplineSet
EndChar

StartChar: uni2001
Encoding: 8193 8193 7
Width: 829
VWidth: 1792
Flags: W
HStem: 174 384<132.569 695.78>
VStem: 30 769.75<277.595 454.03>
LayerCount: 2
Fore
SplineSet
177.911465776 178.911465776 m 1
 159.623139555 183.134511454 142.194317629 190.08080588 125.625 199.75 c 0
 96.208984375 216.916015625 72.916015625 240.208984375 55.75 269.625 c 0
 38.583984375 299.041015625 30 331.166015625 30 366 c 0
 30 400.833984375 38.583984375 432.958984375 55.75 462.375 c 0
 72.916015625 491.791015625 96.208984375 515.083984375 125.625 532.25 c 0
 155.041015625 549.416015625 187.166015625 558 222 558 c 2
 556.674651991 557.674651991 l 1
 683 684 l 2
 689.311523438 690.311523438 697.333007812 693 706 693 c 0
 723.836914062 693 738 678.842773438 738 661 c 0
 738 652.333007812 735.307617188 644.307617188 729 638 c 2
 645.132576169 554.132576169 l 1
 665.877831986 550.13867078 685.541973264 542.719314586 704.125 531.875 c 0
 733.541015625 514.708984375 756.833984375 491.416015625 774 462 c 0
 791.166015625 432.583984375 799.75 400.458984375 799.75 365.625 c 0
 799.75 330.791015625 791.166015625 298.666015625 774 269.25 c 0
 756.833984375 239.833984375 733.541015625 216.541015625 704.125 199.375 c 0
 674.708984375 182.208984375 643 174 608 174 c 2
 265 174 l 1
 139.634765625 48.634765625 l 2
 132.967773438 42.634765625 125.301757812 39.634765625 116.634765625 39.634765625 c 0
 98.7919921875 39.634765625 84.634765625 53.7978515625 84.634765625 71.634765625 c 0
 84.634765625 80.3017578125 87.634765625 87.9677734375 93.634765625 94.634765625 c 2
 177.911465776 178.911465776 l 1
EndSplineSet
EndChar

StartChar: uni2002
Encoding: 8194 8194 8
Width: 829
VWidth: 1792
Flags: W
HStem: 174 384<132.569 695.78>
VStem: 30 769.75<277.595 454.03>
LayerCount: 2
Fore
SplineSet
177.911465776 178.911465776 m 1
 159.623139555 183.134511454 142.194317629 190.08080588 125.625 199.75 c 0
 96.208984375 216.916015625 72.916015625 240.208984375 55.75 269.625 c 0
 38.583984375 299.041015625 30 331.166015625 30 366 c 0
 30 400.833984375 38.583984375 432.958984375 55.75 462.375 c 0
 72.916015625 491.791015625 96.208984375 515.083984375 125.625 532.25 c 0
 155.041015625 549.416015625 187.166015625 558 222 558 c 2
 556.674651991 557.674651991 l 1
 683 684 l 2
 689.311523438 690.311523438 697.333007812 693 706 693 c 0
 723.836914062 693 738 678.842773438 738 661 c 0
 738 652.333007812 735.307617188 644.307617188 729 638 c 2
 645.132576169 554.132576169 l 1
 665.877831986 550.13867078 685.541973264 542.719314586 704.125 531.875 c 0
 733.541015625 514.708984375 756.833984375 491.416015625 774 462 c 0
 791.166015625 432.583984375 799.75 400.458984375 799.75 365.625 c 0
 799.75 330.791015625 791.166015625 298.666015625 774 269.25 c 0
 756.833984375 239.833984375 733.541015625 216.541015625 704.125 199.375 c 0
 674.708984375 182.208984375 643 174 608 174 c 2
 265 174 l 1
 139.634765625 48.634765625 l 2
 132.967773438 42.634765625 125.301757812 39.634765625 116.634765625 39.634765625 c 0
 98.7919921875 39.634765625 84.634765625 53.7978515625 84.634765625 71.634765625 c 0
 84.634765625 80.3017578125 87.634765625 87.9677734375 93.634765625 94.634765625 c 2
 177.911465776 178.911465776 l 1
EndSplineSet
EndChar

StartChar: uni2003
Encoding: 8195 8195 9
Width: 829
VWidth: 1792
Flags: W
HStem: 174 384<132.569 695.78>
VStem: 30 769.75<277.595 454.03>
LayerCount: 2
Fore
SplineSet
177.911465776 178.911465776 m 1
 159.623139555 183.134511454 142.194317629 190.08080588 125.625 199.75 c 0
 96.208984375 216.916015625 72.916015625 240.208984375 55.75 269.625 c 0
 38.583984375 299.041015625 30 331.166015625 30 366 c 0
 30 400.833984375 38.583984375 432.958984375 55.75 462.375 c 0
 72.916015625 491.791015625 96.208984375 515.083984375 125.625 532.25 c 0
 155.041015625 549.416015625 187.166015625 558 222 558 c 2
 556.674651991 557.674651991 l 1
 683 684 l 2
 689.311523438 690.311523438 697.333007812 693 706 693 c 0
 723.836914062 693 738 678.842773438 738 661 c 0
 738 652.333007812 735.307617188 644.307617188 729 638 c 2
 645.132576169 554.132576169 l 1
 665.877831986 550.13867078 685.541973264 542.719314586 704.125 531.875 c 0
 733.541015625 514.708984375 756.833984375 491.416015625 774 462 c 0
 791.166015625 432.583984375 799.75 400.458984375 799.75 365.625 c 0
 799.75 330.791015625 791.166015625 298.666015625 774 269.25 c 0
 756.833984375 239.833984375 733.541015625 216.541015625 704.125 199.375 c 0
 674.708984375 182.208984375 643 174 608 174 c 2
 265 174 l 1
 139.634765625 48.634765625 l 2
 132.967773438 42.634765625 125.301757812 39.634765625 116.634765625 39.634765625 c 0
 98.7919921875 39.634765625 84.634765625 53.7978515625 84.634765625 71.634765625 c 0
 84.634765625 80.3017578125 87.634765625 87.9677734375 93.634765625 94.634765625 c 2
 177.911465776 178.911465776 l 1
EndSplineSet
EndChar

StartChar: uni2004
Encoding: 8196 8196 10
Width: 829
VWidth: 1792
Flags: W
HStem: 174 384<132.569 695.78>
VStem: 30 769.75<277.595 454.03>
LayerCount: 2
Fore
SplineSet
177.911465776 178.911465776 m 1
 159.623139555 183.134511454 142.194317629 190.08080588 125.625 199.75 c 0
 96.208984375 216.916015625 72.916015625 240.208984375 55.75 269.625 c 0
 38.583984375 299.041015625 30 331.166015625 30 366 c 0
 30 400.833984375 38.583984375 432.958984375 55.75 462.375 c 0
 72.916015625 491.791015625 96.208984375 515.083984375 125.625 532.25 c 0
 155.041015625 549.416015625 187.166015625 558 222 558 c 2
 556.674651991 557.674651991 l 1
 683 684 l 2
 689.311523438 690.311523438 697.333007812 693 706 693 c 0
 723.836914062 693 738 678.842773438 738 661 c 0
 738 652.333007812 735.307617188 644.307617188 729 638 c 2
 645.132576169 554.132576169 l 1
 665.877831986 550.13867078 685.541973264 542.719314586 704.125 531.875 c 0
 733.541015625 514.708984375 756.833984375 491.416015625 774 462 c 0
 791.166015625 432.583984375 799.75 400.458984375 799.75 365.625 c 0
 799.75 330.791015625 791.166015625 298.666015625 774 269.25 c 0
 756.833984375 239.833984375 733.541015625 216.541015625 704.125 199.375 c 0
 674.708984375 182.208984375 643 174 608 174 c 2
 265 174 l 1
 139.634765625 48.634765625 l 2
 132.967773438 42.634765625 125.301757812 39.634765625 116.634765625 39.634765625 c 0
 98.7919921875 39.634765625 84.634765625 53.7978515625 84.634765625 71.634765625 c 0
 84.634765625 80.3017578125 87.634765625 87.9677734375 93.634765625 94.634765625 c 2
 177.911465776 178.911465776 l 1
EndSplineSet
EndChar

StartChar: uni2005
Encoding: 8197 8197 11
Width: 829
VWidth: 1792
Flags: W
HStem: 174 384<132.569 695.78>
VStem: 30 769.75<277.595 454.03>
LayerCount: 2
Fore
SplineSet
177.911465776 178.911465776 m 1
 159.623139555 183.134511454 142.194317629 190.08080588 125.625 199.75 c 0
 96.208984375 216.916015625 72.916015625 240.208984375 55.75 269.625 c 0
 38.583984375 299.041015625 30 331.166015625 30 366 c 0
 30 400.833984375 38.583984375 432.958984375 55.75 462.375 c 0
 72.916015625 491.791015625 96.208984375 515.083984375 125.625 532.25 c 0
 155.041015625 549.416015625 187.166015625 558 222 558 c 2
 556.674651991 557.674651991 l 1
 683 684 l 2
 689.311523438 690.311523438 697.333007812 693 706 693 c 0
 723.836914062 693 738 678.842773438 738 661 c 0
 738 652.333007812 735.307617188 644.307617188 729 638 c 2
 645.132576169 554.132576169 l 1
 665.877831986 550.13867078 685.541973264 542.719314586 704.125 531.875 c 0
 733.541015625 514.708984375 756.833984375 491.416015625 774 462 c 0
 791.166015625 432.583984375 799.75 400.458984375 799.75 365.625 c 0
 799.75 330.791015625 791.166015625 298.666015625 774 269.25 c 0
 756.833984375 239.833984375 733.541015625 216.541015625 704.125 199.375 c 0
 674.708984375 182.208984375 643 174 608 174 c 2
 265 174 l 1
 139.634765625 48.634765625 l 2
 132.967773438 42.634765625 125.301757812 39.634765625 116.634765625 39.634765625 c 0
 98.7919921875 39.634765625 84.634765625 53.7978515625 84.634765625 71.634765625 c 0
 84.634765625 80.3017578125 87.634765625 87.9677734375 93.634765625 94.634765625 c 2
 177.911465776 178.911465776 l 1
EndSplineSet
EndChar

StartChar: uni2006
Encoding: 8198 8198 12
Width: 829
VWidth: 1792
Flags: W
HStem: 174 384<132.569 695.78>
VStem: 30 769.75<277.595 454.03>
LayerCount: 2
Fore
SplineSet
177.911465776 178.911465776 m 1
 159.623139555 183.134511454 142.194317629 190.08080588 125.625 199.75 c 0
 96.208984375 216.916015625 72.916015625 240.208984375 55.75 269.625 c 0
 38.583984375 299.041015625 30 331.166015625 30 366 c 0
 30 400.833984375 38.583984375 432.958984375 55.75 462.375 c 0
 72.916015625 491.791015625 96.208984375 515.083984375 125.625 532.25 c 0
 155.041015625 549.416015625 187.166015625 558 222 558 c 2
 556.674651991 557.674651991 l 1
 683 684 l 2
 689.311523438 690.311523438 697.333007812 693 706 693 c 0
 723.836914062 693 738 678.842773438 738 661 c 0
 738 652.333007812 735.307617188 644.307617188 729 638 c 2
 645.132576169 554.132576169 l 1
 665.877831986 550.13867078 685.541973264 542.719314586 704.125 531.875 c 0
 733.541015625 514.708984375 756.833984375 491.416015625 774 462 c 0
 791.166015625 432.583984375 799.75 400.458984375 799.75 365.625 c 0
 799.75 330.791015625 791.166015625 298.666015625 774 269.25 c 0
 756.833984375 239.833984375 733.541015625 216.541015625 704.125 199.375 c 0
 674.708984375 182.208984375 643 174 608 174 c 2
 265 174 l 1
 139.634765625 48.634765625 l 2
 132.967773438 42.634765625 125.301757812 39.634765625 116.634765625 39.634765625 c 0
 98.7919921875 39.634765625 84.634765625 53.7978515625 84.634765625 71.634765625 c 0
 84.634765625 80.3017578125 87.634765625 87.9677734375 93.634765625 94.634765625 c 2
 177.911465776 178.911465776 l 1
EndSplineSet
EndChar

StartChar: uni2007
Encoding: 8199 8199 13
Width: 829
VWidth: 1792
Flags: W
HStem: 174 384<132.569 695.78>
VStem: 30 769.75<277.595 454.03>
LayerCount: 2
Fore
SplineSet
177.911465776 178.911465776 m 1
 159.623139555 183.134511454 142.194317629 190.08080588 125.625 199.75 c 0
 96.208984375 216.916015625 72.916015625 240.208984375 55.75 269.625 c 0
 38.583984375 299.041015625 30 331.166015625 30 366 c 0
 30 400.833984375 38.583984375 432.958984375 55.75 462.375 c 0
 72.916015625 491.791015625 96.208984375 515.083984375 125.625 532.25 c 0
 155.041015625 549.416015625 187.166015625 558 222 558 c 2
 556.674651991 557.674651991 l 1
 683 684 l 2
 689.311523438 690.311523438 697.333007812 693 706 693 c 0
 723.836914062 693 738 678.842773438 738 661 c 0
 738 652.333007812 735.307617188 644.307617188 729 638 c 2
 645.132576169 554.132576169 l 1
 665.877831986 550.13867078 685.541973264 542.719314586 704.125 531.875 c 0
 733.541015625 514.708984375 756.833984375 491.416015625 774 462 c 0
 791.166015625 432.583984375 799.75 400.458984375 799.75 365.625 c 0
 799.75 330.791015625 791.166015625 298.666015625 774 269.25 c 0
 756.833984375 239.833984375 733.541015625 216.541015625 704.125 199.375 c 0
 674.708984375 182.208984375 643 174 608 174 c 2
 265 174 l 1
 139.634765625 48.634765625 l 2
 132.967773438 42.634765625 125.301757812 39.634765625 116.634765625 39.634765625 c 0
 98.7919921875 39.634765625 84.634765625 53.7978515625 84.634765625 71.634765625 c 0
 84.634765625 80.3017578125 87.634765625 87.9677734375 93.634765625 94.634765625 c 2
 177.911465776 178.911465776 l 1
EndSplineSet
EndChar

StartChar: uni2008
Encoding: 8200 8200 14
Width: 829
VWidth: 1792
Flags: W
HStem: 174 384<132.569 695.78>
VStem: 30 769.75<277.595 454.03>
LayerCount: 2
Fore
SplineSet
177.911465776 178.911465776 m 1
 159.623139555 183.134511454 142.194317629 190.08080588 125.625 199.75 c 0
 96.208984375 216.916015625 72.916015625 240.208984375 55.75 269.625 c 0
 38.583984375 299.041015625 30 331.166015625 30 366 c 0
 30 400.833984375 38.583984375 432.958984375 55.75 462.375 c 0
 72.916015625 491.791015625 96.208984375 515.083984375 125.625 532.25 c 0
 155.041015625 549.416015625 187.166015625 558 222 558 c 2
 556.674651991 557.674651991 l 1
 683 684 l 2
 689.311523438 690.311523438 697.333007812 693 706 693 c 0
 723.836914062 693 738 678.842773438 738 661 c 0
 738 652.333007812 735.307617188 644.307617188 729 638 c 2
 645.132576169 554.132576169 l 1
 665.877831986 550.13867078 685.541973264 542.719314586 704.125 531.875 c 0
 733.541015625 514.708984375 756.833984375 491.416015625 774 462 c 0
 791.166015625 432.583984375 799.75 400.458984375 799.75 365.625 c 0
 799.75 330.791015625 791.166015625 298.666015625 774 269.25 c 0
 756.833984375 239.833984375 733.541015625 216.541015625 704.125 199.375 c 0
 674.708984375 182.208984375 643 174 608 174 c 2
 265 174 l 1
 139.634765625 48.634765625 l 2
 132.967773438 42.634765625 125.301757812 39.634765625 116.634765625 39.634765625 c 0
 98.7919921875 39.634765625 84.634765625 53.7978515625 84.634765625 71.634765625 c 0
 84.634765625 80.3017578125 87.634765625 87.9677734375 93.634765625 94.634765625 c 2
 177.911465776 178.911465776 l 1
EndSplineSet
EndChar

StartChar: uni2009
Encoding: 8201 8201 15
Width: 829
VWidth: 1792
Flags: W
HStem: 174 384<132.569 695.78>
VStem: 30 769.75<277.595 454.03>
LayerCount: 2
Fore
SplineSet
177.911465776 178.911465776 m 1
 159.623139555 183.134511454 142.194317629 190.08080588 125.625 199.75 c 0
 96.208984375 216.916015625 72.916015625 240.208984375 55.75 269.625 c 0
 38.583984375 299.041015625 30 331.166015625 30 366 c 0
 30 400.833984375 38.583984375 432.958984375 55.75 462.375 c 0
 72.916015625 491.791015625 96.208984375 515.083984375 125.625 532.25 c 0
 155.041015625 549.416015625 187.166015625 558 222 558 c 2
 556.674651991 557.674651991 l 1
 683 684 l 2
 689.311523438 690.311523438 697.333007812 693 706 693 c 0
 723.836914062 693 738 678.842773438 738 661 c 0
 738 652.333007812 735.307617188 644.307617188 729 638 c 2
 645.132576169 554.132576169 l 1
 665.877831986 550.13867078 685.541973264 542.719314586 704.125 531.875 c 0
 733.541015625 514.708984375 756.833984375 491.416015625 774 462 c 0
 791.166015625 432.583984375 799.75 400.458984375 799.75 365.625 c 0
 799.75 330.791015625 791.166015625 298.666015625 774 269.25 c 0
 756.833984375 239.833984375 733.541015625 216.541015625 704.125 199.375 c 0
 674.708984375 182.208984375 643 174 608 174 c 2
 265 174 l 1
 139.634765625 48.634765625 l 2
 132.967773438 42.634765625 125.301757812 39.634765625 116.634765625 39.634765625 c 0
 98.7919921875 39.634765625 84.634765625 53.7978515625 84.634765625 71.634765625 c 0
 84.634765625 80.3017578125 87.634765625 87.9677734375 93.634765625 94.634765625 c 2
 177.911465776 178.911465776 l 1
EndSplineSet
EndChar

StartChar: uni200A
Encoding: 8202 8202 16
Width: 829
VWidth: 1792
Flags: W
HStem: 174 384<132.569 695.78>
VStem: 30 769.75<277.595 454.03>
LayerCount: 2
Fore
SplineSet
177.911465776 178.911465776 m 1
 159.623139555 183.134511454 142.194317629 190.08080588 125.625 199.75 c 0
 96.208984375 216.916015625 72.916015625 240.208984375 55.75 269.625 c 0
 38.583984375 299.041015625 30 331.166015625 30 366 c 0
 30 400.833984375 38.583984375 432.958984375 55.75 462.375 c 0
 72.916015625 491.791015625 96.208984375 515.083984375 125.625 532.25 c 0
 155.041015625 549.416015625 187.166015625 558 222 558 c 2
 556.674651991 557.674651991 l 1
 683 684 l 2
 689.311523438 690.311523438 697.333007812 693 706 693 c 0
 723.836914062 693 738 678.842773438 738 661 c 0
 738 652.333007812 735.307617188 644.307617188 729 638 c 2
 645.132576169 554.132576169 l 1
 665.877831986 550.13867078 685.541973264 542.719314586 704.125 531.875 c 0
 733.541015625 514.708984375 756.833984375 491.416015625 774 462 c 0
 791.166015625 432.583984375 799.75 400.458984375 799.75 365.625 c 0
 799.75 330.791015625 791.166015625 298.666015625 774 269.25 c 0
 756.833984375 239.833984375 733.541015625 216.541015625 704.125 199.375 c 0
 674.708984375 182.208984375 643 174 608 174 c 2
 265 174 l 1
 139.634765625 48.634765625 l 2
 132.967773438 42.634765625 125.301757812 39.634765625 116.634765625 39.634765625 c 0
 98.7919921875 39.634765625 84.634765625 53.7978515625 84.634765625 71.634765625 c 0
 84.634765625 80.3017578125 87.634765625 87.9677734375 93.634765625 94.634765625 c 2
 177.911465776 178.911465776 l 1
EndSplineSet
EndChar

StartChar: uni200B
Encoding: 8203 8203 17
Width: 829
VWidth: 1792
Flags: W
HStem: 174 384<132.569 695.78>
VStem: 30 769.75<277.595 454.03>
LayerCount: 2
Fore
SplineSet
177.911465776 178.911465776 m 1
 159.623139555 183.134511454 142.194317629 190.08080588 125.625 199.75 c 0
 96.208984375 216.916015625 72.916015625 240.208984375 55.75 269.625 c 0
 38.583984375 299.041015625 30 331.166015625 30 366 c 0
 30 400.833984375 38.583984375 432.958984375 55.75 462.375 c 0
 72.916015625 491.791015625 96.208984375 515.083984375 125.625 532.25 c 0
 155.041015625 549.416015625 187.166015625 558 222 558 c 2
 556.674651991 557.674651991 l 1
 683 684 l 2
 689.311523438 690.311523438 697.333007812 693 706 693 c 0
 723.836914062 693 738 678.842773438 738 661 c 0
 738 652.333007812 735.307617188 644.307617188 729 638 c 2
 645.132576169 554.132576169 l 1
 665.877831986 550.13867078 685.541973264 542.719314586 704.125 531.875 c 0
 733.541015625 514.708984375 756.833984375 491.416015625 774 462 c 0
 791.166015625 432.583984375 799.75 400.458984375 799.75 365.625 c 0
 799.75 330.791015625 791.166015625 298.666015625 774 269.25 c 0
 756.833984375 239.833984375 733.541015625 216.541015625 704.125 199.375 c 0
 674.708984375 182.208984375 643 174 608 174 c 2
 265 174 l 1
 139.634765625 48.634765625 l 2
 132.967773438 42.634765625 125.301757812 39.634765625 116.634765625 39.634765625 c 0
 98.7919921875 39.634765625 84.634765625 53.7978515625 84.634765625 71.634765625 c 0
 84.634765625 80.3017578125 87.634765625 87.9677734375 93.634765625 94.634765625 c 2
 177.911465776 178.911465776 l 1
EndSplineSet
EndChar

StartChar: afii61664
Encoding: 8204 8204 18
Width: 829
VWidth: 1792
Flags: W
HStem: 174 384<132.569 695.78>
VStem: 30 769.75<277.595 454.03>
LayerCount: 2
Fore
SplineSet
177.911465776 178.911465776 m 1
 159.623139555 183.134511454 142.194317629 190.08080588 125.625 199.75 c 0
 96.208984375 216.916015625 72.916015625 240.208984375 55.75 269.625 c 0
 38.583984375 299.041015625 30 331.166015625 30 366 c 0
 30 400.833984375 38.583984375 432.958984375 55.75 462.375 c 0
 72.916015625 491.791015625 96.208984375 515.083984375 125.625 532.25 c 0
 155.041015625 549.416015625 187.166015625 558 222 558 c 2
 556.674651991 557.674651991 l 1
 683 684 l 2
 689.311523438 690.311523438 697.333007812 693 706 693 c 0
 723.836914062 693 738 678.842773438 738 661 c 0
 738 652.333007812 735.307617188 644.307617188 729 638 c 2
 645.132576169 554.132576169 l 1
 665.877831986 550.13867078 685.541973264 542.719314586 704.125 531.875 c 0
 733.541015625 514.708984375 756.833984375 491.416015625 774 462 c 0
 791.166015625 432.583984375 799.75 400.458984375 799.75 365.625 c 0
 799.75 330.791015625 791.166015625 298.666015625 774 269.25 c 0
 756.833984375 239.833984375 733.541015625 216.541015625 704.125 199.375 c 0
 674.708984375 182.208984375 643 174 608 174 c 2
 265 174 l 1
 139.634765625 48.634765625 l 2
 132.967773438 42.634765625 125.301757812 39.634765625 116.634765625 39.634765625 c 0
 98.7919921875 39.634765625 84.634765625 53.7978515625 84.634765625 71.634765625 c 0
 84.634765625 80.3017578125 87.634765625 87.9677734375 93.634765625 94.634765625 c 2
 177.911465776 178.911465776 l 1
EndSplineSet
EndChar

StartChar: afii301
Encoding: 8205 8205 19
Width: 829
VWidth: 1792
Flags: W
HStem: 174 384<132.569 695.78>
VStem: 30 769.75<277.595 454.03>
LayerCount: 2
Fore
SplineSet
177.911465776 178.911465776 m 1
 159.623139555 183.134511454 142.194317629 190.08080588 125.625 199.75 c 0
 96.208984375 216.916015625 72.916015625 240.208984375 55.75 269.625 c 0
 38.583984375 299.041015625 30 331.166015625 30 366 c 0
 30 400.833984375 38.583984375 432.958984375 55.75 462.375 c 0
 72.916015625 491.791015625 96.208984375 515.083984375 125.625 532.25 c 0
 155.041015625 549.416015625 187.166015625 558 222 558 c 2
 556.674651991 557.674651991 l 1
 683 684 l 2
 689.311523438 690.311523438 697.333007812 693 706 693 c 0
 723.836914062 693 738 678.842773438 738 661 c 0
 738 652.333007812 735.307617188 644.307617188 729 638 c 2
 645.132576169 554.132576169 l 1
 665.877831986 550.13867078 685.541973264 542.719314586 704.125 531.875 c 0
 733.541015625 514.708984375 756.833984375 491.416015625 774 462 c 0
 791.166015625 432.583984375 799.75 400.458984375 799.75 365.625 c 0
 799.75 330.791015625 791.166015625 298.666015625 774 269.25 c 0
 756.833984375 239.833984375 733.541015625 216.541015625 704.125 199.375 c 0
 674.708984375 182.208984375 643 174 608 174 c 2
 265 174 l 1
 139.634765625 48.634765625 l 2
 132.967773438 42.634765625 125.301757812 39.634765625 116.634765625 39.634765625 c 0
 98.7919921875 39.634765625 84.634765625 53.7978515625 84.634765625 71.634765625 c 0
 84.634765625 80.3017578125 87.634765625 87.9677734375 93.634765625 94.634765625 c 2
 177.911465776 178.911465776 l 1
EndSplineSet
EndChar

StartChar: afii299
Encoding: 8206 8206 20
Width: 1024
VWidth: 1792
Flags: HW
LayerCount: 2
Fore
SplineSet
545.5 424 m 132
 545.5 419.666992188 543.833007812 415.833007812 540.5 412.5 c 6
 307.5 179.5 l 6
 304.166992188 176.166992188 300.333007812 174.5 296 174.5 c 132
 291.666992188 174.5 287.833007812 176.166992188 284.5 179.5 c 6
 259.5 204.5 l 6
 256.166992188 207.833007812 254.5 211.666992188 254.5 216 c 132
 254.5 220.333007812 256.166992188 224.166992188 259.5 227.5 c 6
 456 424 l 5
 259.5 620.5 l 6
 256.166992188 623.833007812 254.5 627.666992188 254.5 632 c 132
 254.5 636.333007812 256.166992188 640.166992188 259.5 643.5 c 6
 284.5 668.5 l 6
 287.833007812 671.833007812 291.666992188 673.5 296 673.5 c 132
 300.333007812 673.5 304.166992188 671.833007812 307.5 668.5 c 6
 540.5 435.5 l 6
 543.833007812 432.166992188 545.5 428.333007812 545.5 424 c 132
737.5 424 m 132
 737.5 419.666992188 735.833007812 415.833007812 732.5 412.5 c 6
 499.5 179.5 l 6
 496.166992188 176.166992188 492.333007812 174.5 488 174.5 c 132
 483.666992188 174.5 479.833007812 176.166992188 476.5 179.5 c 6
 451.5 204.5 l 6
 448.166992188 207.833007812 446.5 211.666992188 446.5 216 c 132
 446.5 220.333007812 448.166992188 224.166992188 451.5 227.5 c 6
 648 424 l 5
 451.5 620.5 l 6
 448.166992188 623.833007812 446.5 627.666992188 446.5 632 c 132
 446.5 636.333007812 448.166992188 640.166992188 451.5 643.5 c 6
 476.5 668.5 l 6
 479.833007812 671.833007812 483.666992188 673.5 488 673.5 c 132
 492.333007812 673.5 496.166992188 671.833007812 499.5 668.5 c 6
 732.5 435.5 l 6
 735.833007812 432.166992188 737.5 428.333007812 737.5 424 c 132
EndSplineSet
EndChar

StartChar: afii300
Encoding: 8207 8207 21
Width: 1024
VWidth: 1792
Flags: HW
LayerCount: 2
Fore
SplineSet
553 254 m 132
 553 249.666992188 551.333007812 245.833007812 548 242.5 c 6
 523 217.5 l 6
 519.666992188 214.166992188 515.833007812 212.5 511.5 212.5 c 132
 507.166992188 212.5 503.333007812 214.166992188 500 217.5 c 6
 267 450.5 l 6
 263.666992188 453.833007812 262 457.666992188 262 462 c 132
 262 466.333007812 263.666992188 470.166992188 267 473.5 c 6
 500 706.5 l 6
 503.333007812 709.833007812 507.166992188 711.5 511.5 711.5 c 132
 515.833007812 711.5 519.666992188 709.833007812 523 706.5 c 6
 548 681.5 l 6
 551.333007812 678.166992188 553 674.333007812 553 670 c 132
 553 665.666992188 551.333007812 661.833007812 548 658.5 c 6
 351.5 462 l 5
 548 265.5 l 6
 551.333007812 262.166992188 553 258.333007812 553 254 c 132
745 254 m 132
 745 249.666992188 743.333007812 245.833007812 740 242.5 c 6
 715 217.5 l 6
 711.666992188 214.166992188 707.833007812 212.5 703.5 212.5 c 132
 699.166992188 212.5 695.333007812 214.166992188 692 217.5 c 6
 459 450.5 l 6
 455.666992188 453.833007812 454 457.666992188 454 462 c 132
 454 466.333007812 455.666992188 470.166992188 459 473.5 c 6
 692 706.5 l 6
 695.333007812 709.833007812 699.166992188 711.5 703.5 711.5 c 132
 707.833007812 711.5 711.666992188 709.833007812 715 706.5 c 6
 740 681.5 l 6
 743.333007812 678.166992188 745 674.333007812 745 670 c 132
 745 665.666992188 743.333007812 661.833007812 740 658.5 c 6
 543.5 462 l 5
 740 265.5 l 6
 743.333007812 262.166992188 745 258.333007812 745 254 c 132
EndSplineSet
EndChar

StartChar: uni202F
Encoding: 8239 8239 22
Width: 829
VWidth: 1792
Flags: W
HStem: 174 384<132.569 695.78>
VStem: 30 769.75<277.595 454.03>
LayerCount: 2
Fore
SplineSet
177.911465776 178.911465776 m 1
 159.623139555 183.134511454 142.194317629 190.08080588 125.625 199.75 c 0
 96.208984375 216.916015625 72.916015625 240.208984375 55.75 269.625 c 0
 38.583984375 299.041015625 30 331.166015625 30 366 c 0
 30 400.833984375 38.583984375 432.958984375 55.75 462.375 c 0
 72.916015625 491.791015625 96.208984375 515.083984375 125.625 532.25 c 0
 155.041015625 549.416015625 187.166015625 558 222 558 c 2
 556.674651991 557.674651991 l 1
 683 684 l 2
 689.311523438 690.311523438 697.333007812 693 706 693 c 0
 723.836914062 693 738 678.842773438 738 661 c 0
 738 652.333007812 735.307617188 644.307617188 729 638 c 2
 645.132576169 554.132576169 l 1
 665.877831986 550.13867078 685.541973264 542.719314586 704.125 531.875 c 0
 733.541015625 514.708984375 756.833984375 491.416015625 774 462 c 0
 791.166015625 432.583984375 799.75 400.458984375 799.75 365.625 c 0
 799.75 330.791015625 791.166015625 298.666015625 774 269.25 c 0
 756.833984375 239.833984375 733.541015625 216.541015625 704.125 199.375 c 0
 674.708984375 182.208984375 643 174 608 174 c 2
 265 174 l 1
 139.634765625 48.634765625 l 2
 132.967773438 42.634765625 125.301757812 39.634765625 116.634765625 39.634765625 c 0
 98.7919921875 39.634765625 84.634765625 53.7978515625 84.634765625 71.634765625 c 0
 84.634765625 80.3017578125 87.634765625 87.9677734375 93.634765625 94.634765625 c 2
 177.911465776 178.911465776 l 1
EndSplineSet
EndChar
